<?xml version="1.0" encoding="UTF-8"?>
<svg id="Layer_1" data-name="Layer 1" xmlns="http://www.w3.org/2000/svg" viewBox="0 0 456.93 456.05">
  <path d="M344.03,420.97c-.55,2.03-1.06,4.42-2.47,5.24-21.71,12.45-44.83,21.27-69.47,25.82-121.83,22.5-236.14-51.18-265.67-171.18C-24.35,155.78,58.84,27.18,185.54,3.96c125.96-23.08,243.35,56.91,267.31,183.23,10.91,57.54-.24,111.68-31.19,162.57-2.2-2.1-4.11-3.86-5.95-5.69-42.64-42.62-85.23-85.28-127.96-127.81-5.98-5.95-12.66-11.2-19.34-17.06,8.36-30.43,17.04-61.84,25.6-93.28,2.85-10.46-1.26-18.84-10.26-20.53-2.92-.55-6.24.03-9.19.82-22.26,5.94-44.47,12.06-66.69,18.14-10.31,2.82-20.6,5.76-30.95,8.42-1.22.31-2.95-.47-4.18-1.2-18.56-11.04-37.98-9.5-51.77,4.17-14.35,14.23-16.07,33.89-4.62,52.83.23.37.34.81.73,1.76-10.44,10.43-21.04,20.99-31.61,31.59-21.36,21.43-21.31,49.33.11,70.88,7.43,7.47,14.81,14.99,22.32,22.37,19.46,19.13,48.06,19.17,67.52.1,7.65-7.5,15.15-15.16,21.51-21.54,49.22,49.28,97.95,98.08,147.08,147.25Z"/>
</svg>